<?xml version="1.0" encoding="UTF-8" standalone="no"?>
<svg
   xmlns:dc="http://purl.org/dc/elements/1.1/"
   xmlns:cc="http://creativecommons.org/ns#"
   xmlns:rdf="http://www.w3.org/1999/02/22-rdf-syntax-ns#"
   xmlns:svg="http://www.w3.org/2000/svg"
   xmlns="http://www.w3.org/2000/svg"
   id="svg8"
   version="1.1"
   viewBox="0 0 69.712334 83.359566"
   height="83.359566mm"
   width="69.712334mm">
  <defs
     id="defs2" />
  <metadata
     id="metadata5">
    <rdf:RDF>
      <cc:Work
         rdf:about="">
        <dc:format>image/svg+xml</dc:format>
        <dc:type
           rdf:resource="http://purl.org/dc/dcmitype/StillImage" />
        <dc:title></dc:title>
      </cc:Work>
    </rdf:RDF>
  </metadata>
  <g
     transform="translate(-59.413177,-78.283797)"
     id="layer1">
    <flowRoot
       transform="scale(0.26458333)"
       style="font-style:normal;font-weight:normal;font-size:40px;line-height:1.25;font-family:sans-serif;letter-spacing:0px;word-spacing:0px;fill:#ffffff;fill-opacity:1;stroke:#ffffff;stroke-opacity:0;"
       id="flowRoot3680"
       xml:space="preserve"><flowRegion
         style="fill:#ffffff;stroke:#ffffff;stroke-opacity:0;"
         id="flowRegion3682"><rect
           style="fill:#ffffff;stroke:#ffffff;stroke-opacity:0;"
           y="366.92557"
           x="123.23861"
           height="133.34013"
           width="177.78685"
           id="rect3684" /></flowRegion><flowPara
         id="flowPara3686"></flowPara></flowRoot>    <flowRoot
       transform="scale(0.26458333)"
       style="font-style:normal;font-weight:normal;font-size:40px;line-height:1.25;font-family:sans-serif;letter-spacing:0px;word-spacing:0px;fill:#ffffff;fill-opacity:1;stroke:#ffffff;stroke-opacity:0;"
       id="flowRoot3696"
       xml:space="preserve"><flowRegion
         style="fill:#ffffff;stroke:#ffffff;stroke-opacity:0;"
         id="flowRegion3698"><rect
           style="fill:#ffffff;stroke:#ffffff;stroke-opacity:0;"
           y="363.89511"
           x="514.16766"
           height="60.609154"
           width="61.619305"
           id="rect3700" /></flowRegion><flowPara
         id="flowPara3702"></flowPara></flowRoot>    <g
       id="text3690"
       style="font-style:normal;font-weight:normal;font-size:10.58333302px;line-height:1.25;font-family:sans-serif;letter-spacing:0px;word-spacing:0px;fill:#ffffff;fill-opacity:1;stroke:#ffffff;stroke-width:0.26458332;stroke-opacity:0"
       aria-label="L">
      <path
         id="path4661"
         style="font-style:normal;font-variant:normal;font-weight:normal;font-stretch:normal;font-size:70.55555725px;font-family:'High Tower Text';-inkscape-font-specification:'High Tower Text';fill:#ffffff;stroke:#ffffff;stroke-width:1.32291663;stroke-miterlimit:4;stroke-dasharray:none;stroke-opacity:0;fill-opacity:1"
         d="m 93.64676,115.99839 q -1.171333,4.40972 -1.171333,8.26823 0,0.65457 -2.204861,0.55122 -5.443251,-0.27561 -13.470324,-0.27561 -8.543837,0 -15.227322,0.34451 -0.999078,0.0689 -1.240235,-0.17226 -0.241156,-0.2067 -0.241156,-1.03353 0,-0.89572 1.481391,-1.03352 3.376193,-0.34451 3.376193,-3.61736 V 87.231843 q 0,-2.411567 -0.654568,-3.5829 -0.792372,-1.378038 -3.031684,-2.135959 -1.343587,-0.482313 -1.171332,-1.550293 0.103353,-0.757921 0.447862,-0.895725 0.34451,-0.137803 1.79145,0.03445 5.029839,0.551216 11.988932,-0.0689 1.240235,-0.103352 1.41249,-0.0689 0.689019,0.103353 0.792372,0.930176 0.103352,0.930176 -0.447863,1.274686 -0.206706,0.137803 -1.412489,0.413411 -2.411567,0.551215 -3.031684,1.274685 -0.620117,0.68902 -0.620117,2.962783 v 30.833603 q 0,2.89388 1.929253,3.96186 1.963705,1.03353 7.096897,1.03353 4.892036,0 7.234701,-1.24024 2.377116,-1.27468 3.858507,-4.75423 0.551215,-1.37804 1.688097,-0.93017 1.10243,0.2756 0.826823,1.27468 z" />
    </g>
    <g
       transform="rotate(33.173225,42.905795,69.303881)"
       id="text3690-7-14"
       style="font-style:normal;font-weight:normal;font-size:10.58333302px;line-height:1.25;font-family:sans-serif;letter-spacing:0px;word-spacing:0px;fill:#ffffff;fill-opacity:1;stroke:#ffffff;stroke-width:0.26458332;stroke-opacity:0"
       aria-label="T">
      <path
         id="path3800-4"
         style="font-style:normal;font-variant:normal;font-weight:normal;font-stretch:normal;font-size:70.55555725px;font-family:'High Tower Text';-inkscape-font-specification:'High Tower Text';fill:#ffffff;stroke:#ffffff;stroke-width:1.32291663;stroke-miterlimit:4;stroke-dasharray:none;stroke-opacity:0;fill-opacity:1"
         d="m 148.29096,83.520963 q -0.0345,0.620117 -0.17226,0.861274 -0.10335,0.206706 -0.68902,0.310058 -1.27468,0.275608 -1.6881,-0.964626 -1.48139,-4.581977 -3.51399,-6.097819 -2.82498,-2.101509 -9.88743,-2.101509 -2.85943,0 -3.13503,0.620117 -0.10336,0.206706 -0.10336,0.585667 v 34.347605 q 0,2.20486 1.03353,3.10058 1.03353,0.86128 4.09967,1.58475 1.30913,0.27561 1.48139,0.37896 0.48231,0.31006 0.34451,1.30914 -0.10336,0.79237 -0.75793,0.86127 -0.0689,0.0345 -1.41248,-0.10335 -9.09506,-0.79238 -15.02062,-0.0689 -1.41249,0.17226 -1.8259,0 -0.34451,-0.17225 -0.44786,-0.82682 -0.27561,-1.10243 1.20578,-1.48139 2.96278,-0.75792 3.99631,-1.8259 1.17133,-1.20578 1.17133,-3.89296 V 76.734125 q 0,-0.999078 -1.24023,-1.171333 -0.13781,-0.03445 -2.03261,-0.03445 -6.54568,0 -9.64627,2.273763 -2.34266,1.688097 -4.16856,6.201172 -0.58566,1.41249 -1.61919,0.930176 -1.17134,-0.275607 -0.86128,-1.274685 1.20579,-3.720703 1.20579,-10.507542 0,-0.792372 2.10151,-0.654568 7.4414,0.482314 16.46755,0.482314 17.08767,0 22.15196,-0.68902 1.92926,-0.275607 2.10151,0.620118 0.96463,4.581977 0.86128,10.610893 z" />
    </g>
  </g>
  <g
     transform="translate(-59.413177,-78.283797)"
     id="layer2" />
</svg>
